<svg width="115" height="115" viewBox="0 0 115 115" fill="none" xmlns="http://www.w3.org/2000/svg">
<rect width="115" height="115" fill="white"/>
<rect x="33.7374" y="12" width="21.1521" height="59.0693" fill="#2B2727"/>
<rect x="61.1106" y="12" width="21.1521" height="59.0693" fill="#2B2727"/>
<rect x="54.8894" y="47.2281" width="7.05069" height="29.8905" fill="#2B2727"/>
<rect x="82.2627" y="17.6934" width="7.05069" height="29.8905" fill="#2B2727"/>
<rect x="81.8479" y="52.5657" width="7.46544" height="48.0383" fill="#2B2727"/>
<rect x="20.0507" y="58.9708" width="7.46544" height="35.5839" fill="#2B2727"/>
<rect x="13" y="70.7135" width="7.46544" height="18.1478" fill="#2B2727"/>
<rect x="95.5345" y="70.7135" width="7.46544" height="18.1478" fill="#2B2727"/>
<rect x="88.4839" y="58.9708" width="7.46544" height="35.5839" fill="#2B2727"/>
<rect x="26.9175" y="53.874" width="7.42268" height="46.7264" fill="#2B2727"/>
<rect x="26.6866" y="17.6934" width="7.05069" height="29.8905" fill="#2B2727"/>
<rect x="33.7374" y="82.812" width="53.0875" height="17.792" fill="#2B2727"/>
<rect x="40.788" y="69.646" width="14.1014" height="16.0128" fill="#2B2727"/>
<rect x="61.1106" y="69.646" width="14.1014" height="16.0128" fill="#2B2727"/>
</svg>
